<svg width="80" height="80" viewBox="0 0 80 80" fill="none" xmlns="http://www.w3.org/2000/svg">
<rect width="80" height="80" fill="white"/>
<rect x="28.5888" y="15.6512" width="38.7862" height="43.1106" rx="3" transform="rotate(14.6614 28.5888 15.6512)" stroke="black" stroke-width="2"/>
<path d="M39.5473 35.5043C39.5576 35.5031 39.5879 35.5 39.6281 35.5L39.6281 37.5C39.7565 37.5 39.8894 37.4755 39.9461 37.4651L39.9489 37.4645C40.0342 37.4488 40.1356 37.4275 40.2465 37.4026C40.4698 37.3527 40.7622 37.2819 41.1026 37.1965C41.7851 37.0254 42.6847 36.7895 43.6612 36.5286C45.6155 36.0067 47.8939 35.3807 49.3958 34.9635L48.8605 33.0365C47.3624 33.4526 45.0908 34.0767 43.1451 34.5964C42.1716 34.8564 41.2837 35.0892 40.6162 35.2566C40.2816 35.3405 40.0084 35.4065 39.8098 35.4509C39.7098 35.4733 39.6362 35.4885 39.5867 35.4976C39.5658 35.5015 39.5531 35.5035 39.5473 35.5043ZM39.5473 35.5043C39.5449 35.5046 39.5436 35.5048 39.5435 35.5048C39.5433 35.5049 39.5446 35.5047 39.5473 35.5043ZM20.4489 30.6537C20.6291 31.2616 20.8271 31.9194 21.028 32.5806C21.8161 35.175 24.5351 36.6445 27.1362 35.9162L44.5538 31.0393C47.2091 30.2958 48.7613 27.543 48.0233 24.8862L47.6844 23.6663C46.9346 20.9669 44.1135 19.4104 41.4301 20.2154L23.1914 25.687C22.1243 26.0071 21.2579 26.6673 20.7489 27.5721C20.2377 28.4807 20.1266 29.5667 20.4489 30.6537ZM22.9416 31.9992C22.7417 31.341 22.545 30.6877 22.3664 30.0852C22.1865 29.4786 22.265 28.9561 22.492 28.5527C22.7211 28.1454 23.1413 27.7901 23.7661 27.6026L42.0048 22.131C43.6148 21.648 45.3075 22.582 45.7574 24.2016L46.0963 25.4215C46.5391 27.0156 45.6078 28.6672 44.0146 29.1133L26.597 33.9903C25.0331 34.4282 23.4107 33.5433 22.9416 31.9992ZM49.8605 37.5365L40.8605 40.0365L41.3958 41.9635L50.3958 39.4635L49.8605 37.5365ZM42.9103 45.9594L51.4103 43.4594L50.846 41.5406L42.346 44.0406L42.9103 45.9594ZM16.1227 22.4053L47.8113 13.9929C49.4127 13.5678 51.0555 14.5213 51.4806 16.1227L61.0025 51.991C61.4277 53.5924 60.4741 55.2352 58.8727 55.6603L27.1841 64.0727C25.5827 64.4978 23.9399 63.5442 23.5148 61.9429L13.9929 26.0746C13.5677 24.4732 14.5213 22.8304 16.1227 22.4053ZM24.5688 45.3858L24.6247 45.6091C25.3245 48.4084 28.2418 50.036 30.9914 49.1611L34.3528 48.0916C36.8676 47.2914 38.3275 44.6745 37.6875 42.1143L37.6316 41.8909C36.9318 39.0916 34.0145 37.464 31.2649 38.3389L27.9035 39.4084C25.3887 40.2086 23.9287 42.8255 24.5688 45.3858Z" fill="white" stroke="black" stroke-width="2"/>
</svg>
