<svg width="80" height="80" viewBox="0 0 80 80" fill="none" xmlns="http://www.w3.org/2000/svg">
<rect width="80" height="80" fill="white"/>
<path d="M26.5 71H24C20.8 71 20 68.3333 20 67V21.5C20 18.3 22.6667 17.5 24 17.5H33.5M26.5 71V77H31V71M26.5 71H31M31 71H48M48 71V77H52V71M48 71H52M52 71H54C55.6667 71 59 70.2 59 67V21.5C59 20.1667 58 17.5 54 17.5H44.5M33.5 17.5V7M33.5 17.5H44.5M33.5 7H44.5M33.5 7H30C28.8333 6.33333 27.2 4.6 30 3H47C50.6 4.6 48.5 6.33333 47 7H44.5M44.5 7V17.5" stroke="black" stroke-width="2"/>
<path d="M26 24L25.5 23.5M25.5 23.5V24.5H26.5V23.5H25.5Z" stroke="black"/>
<path d="M39 24L38.5 23.5M38.5 23.5V24.5H39.5V23.5H38.5Z" stroke="black"/>
<path d="M32.5 24L32 23.5M32 23.5V24.5H33V23.5H32Z" stroke="black"/>
<path d="M45.5 24L45 23.5M45 23.5V24.5H46V23.5H45Z" stroke="black"/>
<path d="M51.5 24L51 23.5M51 23.5V24.5H52V23.5H51Z" stroke="black"/>
<path d="M26 30L25.5 29.5M25.5 29.5V30.5H26.5V29.5H25.5Z" stroke="black"/>
<path d="M39 30L38.5 29.5M38.5 29.5V30.5H39.5V29.5H38.5Z" stroke="black"/>
<path d="M32.5 30L32 29.5M32 29.5V30.5H33V29.5H32Z" stroke="black"/>
<path d="M45.5 30L45 29.5M45 29.5V30.5H46V29.5H45Z" stroke="black"/>
<path d="M51.5 30L51 29.5M51 29.5V30.5H52V29.5H51Z" stroke="black"/>
<path d="M26 36L25.5 35.5M25.5 35.5V36.5H26.5V35.5H25.5Z" stroke="black"/>
<path d="M39 36L38.5 35.5M38.5 35.5V36.5H39.5V35.5H38.5Z" stroke="black"/>
<path d="M32.5 36L32 35.5M32 35.5V36.5H33V35.5H32Z" stroke="black"/>
<path d="M45.5 36L45 35.5M45 35.5V36.5H46V35.5H45Z" stroke="black"/>
<path d="M51.5 36L51 35.5M51 35.5V36.5H52V35.5H51Z" stroke="black"/>
<path d="M26 42L25.5 41.5M25.5 41.5V42.5H26.5V41.5H25.5Z" stroke="black"/>
<path d="M39 42L38.5 41.5M38.5 41.5V42.5H39.5V41.5H38.5Z" stroke="black"/>
<path d="M32.5 42L32 41.5M32 41.5V42.5H33V41.5H32Z" stroke="black"/>
<path d="M45.5 42L45 41.5M45 41.5V42.5H46V41.5H45Z" stroke="black"/>
<path d="M51.5 42L51 41.5M51 41.5V42.5H52V41.5H51Z" stroke="black"/>
<path d="M26 48L25.5 47.5M25.5 47.5V48.5H26.5V47.5H25.5Z" stroke="black"/>
<path d="M39 48L38.5 47.5M38.5 47.5V48.5H39.5V47.5H38.5Z" stroke="black"/>
<path d="M32.5 48L32 47.5M32 47.5V48.5H33V47.5H32Z" stroke="black"/>
<path d="M45.5 48L45 47.5M45 47.5V48.5H46V47.5H45Z" stroke="black"/>
<path d="M51.5 48L51 47.5M51 47.5V48.5H52V47.5H51Z" stroke="black"/>
<path d="M26 54L25.5 53.5M25.5 53.5V54.5H26.5V53.5H25.5Z" stroke="black"/>
<path d="M39 54L38.5 53.5M38.5 53.5V54.5H39.5V53.5H38.5Z" stroke="black"/>
<path d="M32.5 54L32 53.5M32 53.5V54.5H33V53.5H32Z" stroke="black"/>
<path d="M45.5 54L45 53.5M45 53.5V54.5H46V53.5H45Z" stroke="black"/>
<path d="M51.5 54L51 53.5M51 53.5V54.5H52V53.5H51Z" stroke="black"/>
<path d="M39 60L38.5 59.5M38.5 59.5V60.5H39.5V59.5H38.5Z" stroke="black"/>
<path d="M32.5 60L32 59.5M32 59.5V60.5H33V59.5H32Z" stroke="black"/>
<path d="M45.5 60L45 59.5M45 59.5V60.5H46V59.5H45Z" stroke="black"/>
<path d="M51.5 60L51 59.5M51 59.5V60.5H52V59.5H51Z" stroke="black"/>
<path d="M39 66L38.5 65.5M38.5 65.5V66.5H39.5V65.5H38.5Z" stroke="black"/>
<path d="M45.5 66L45 65.5M45 65.5V66.5H46V65.5H45Z" stroke="black"/>
<path d="M51.5 66L51 65.5M51 65.5V66.5H52V65.5H51Z" stroke="black"/>
<path d="M26 59.5C26 66 26 66 33 66" stroke="black"/>
</svg>
