<svg width="80" height="80" viewBox="0 0 80 80" fill="none" xmlns="http://www.w3.org/2000/svg">
<rect width="80" height="80" fill="white"/>
<path d="M14.5 63.0017V70.5017M33.5 61.0017V70.5017M46 61.0017V70.5017M64.5 63.0017V70.5017M28 70.5017V57.5017C28.0981 57.0112 28.303 56.3765 28.6351 55.7248M51 70.5017C51 68.0017 51 61.9017 51 57.5017C51 56.7702 50.7721 56.0981 50.396 55.5M9 70.5017V59.5017C9.33333 57.835 10.9 54.5017 14.5 54.5017C18.1 54.5017 24 54.5017 26 54.5017C26.9234 54.4837 28.7431 54.7032 28.6351 55.7248M28.6351 55.7248C29.4315 54.1619 30.9594 52.5017 33.5 52.5017C37.1 52.5017 43 52.5017 45 52.5017C46.6383 52.5017 49.2296 53.6453 50.396 55.5M70.5 72.5C70.5 70 70.5 63.9 70.5 59.5C70.5 56.5 66.6667 54.5 64.5 54.5C62.5 54.5 56.6 54.5 53 54.5C52.0973 54.5 50.3127 54.7 50.396 55.5M12.5 43.5H9V34.5H15.5C16 30.5 17 28 19.5 25L14.5 20.5L21 14.5L25.5 19C27.5 17 30.5 15 34.5 15V8H43.5V15C46.5 15 50.5 16.5 53 19L58 14.5L64 20.5L59.5 25C61.5 27.5 63 30.5 63.5 34.5H70V43.5H66M32.5 37C32.6667 34.8333 34.3 30.5 39.5 30.5C44.7 30.5 46.4736 34.8333 46.7104 37M25 37C26 32.6667 30.3 24 39.5 24C48.7 24 53 32.6667 54 37M16 45.5C16 42.7248 17.7248 40 20.5 40C23.2752 40 25 42.7248 25 45.5C25 48.2752 23.2752 51 20.5 51C17.7248 51 16 48.2752 16 45.5ZM35 43.5C35 40.7248 36.7248 38 39.5 38C42.2752 38 44 40.7248 44 43.5C44 46.2752 42.2752 49 39.5 49C36.7248 49 35 46.2752 35 43.5ZM54 45.5C54 42.7248 55.7248 40 58.5 40C61.2752 40 63 42.7248 63 45.5C63 48.2752 61.2752 51 58.5 51C55.7248 51 54 48.2752 54 45.5Z" stroke="black" stroke-width="2"/>
</svg>
