<svg width="20" height="20" viewBox="0 0 20 20" fill="none" xmlns="http://www.w3.org/2000/svg">
<circle cx="10" cy="10" r="10" fill="#DEAC24"/>
<path d="M6.28354 5H13.7165C14.4224 5 14.9999 5.52261 14.9999 6.28343V13.7166C14.9999 14.4774 14.4224 15 13.7165 15H6.28354C5.57744 15 5 14.4774 5 13.7166V6.28343C5 5.52261 5.57744 5 6.28354 5ZM12.2846 6.11104C12.0369 6.11104 11.8345 6.31352 11.8345 6.56127V7.63884C11.8345 7.88649 12.0369 8.08907 12.2846 8.08907H13.4148C13.6625 8.08907 13.865 7.88649 13.865 7.63884V6.56127C13.865 6.31352 13.6625 6.11104 13.4148 6.11104H12.2846ZM13.8698 9.22896H12.9896C13.0729 9.50085 13.118 9.78885 13.118 10.0868C13.118 11.7501 11.7261 13.0985 10.0095 13.0985C8.29298 13.0985 6.90133 11.7501 6.90133 10.0868C6.90133 9.78864 6.9463 9.50074 7.02967 9.22896H6.11125V13.4531C6.11125 13.6717 6.29011 13.8507 6.5088 13.8507H13.4724C13.6911 13.8507 13.87 13.6718 13.87 13.4531V9.22896H13.8698ZM10.0094 8.03229C8.9003 8.03229 8.00108 8.90349 8.00108 9.97828C8.00108 11.0531 8.9003 11.9243 10.0094 11.9243C11.1186 11.9243 12.0179 11.0531 12.0179 9.97828C12.0179 8.90349 11.1187 8.03229 10.0094 8.03229Z" fill="black"/>
</svg>
