<svg width="80" height="80" viewBox="0 0 80 80" fill="none" xmlns="http://www.w3.org/2000/svg">
<rect width="80" height="80" fill="white"/>
<path d="M11 30H5V61.5H7.80959M11 30V42H18.25M11 30V24.5M53 37V30H49M53 37L53.398 56.5M53 37H56.5M53.5 61.5L53.398 56.5M53.5 61.5H42.5M53.5 61.5H55.3096M49 30V42H42M49 30V24.5M16.5 22.5H14.5L24 14.2258M16.5 22.5L13 24.5H11M16.5 22.5H18.25M24 14.2258L30 9L36.1935 14.2258M24 14.2258L21.5 11.5L5.5 24.5H11M36.1935 14.2258L46 22.5H44M36.1935 14.2258L38 11.5L54 24.5H49M44 22.5L46.5 24.5H49M44 22.5H42M18.25 22.5H20L30 15L40 22.5H42M18.25 22.5V31.7273M18.25 42H32M18.25 42V31.7273M42 22.5V31.7273M42 42H38M42 42V31.7273M38 42V31.5H32V42M38 42H32M53.398 56.5H42.5V61.5M42.5 61.5H34.2041M56.5 37V33.5H64V37M56.5 37H64M64 37H69.5L74.5 49.5V61.5H67.2041M60.5 51H62.5M25.5 25.5C22.5 25.5 20.5 27.7568 20.5 30.5M25.5 25.5C28.5 25.5 30 28.5 30 30.5M25.5 25.5V35M20.5 30.5C20.5 33 23 35 25.5 35M20.5 30.5H30M25.5 35C27.7442 35 30 33 30 30.5M13.25 31.7273C13.25 34.2273 15.75 36.2273 18.25 36.2273M13.25 31.7273C13.25 28.9842 15.25 26.7273 18.25 26.7273M13.25 31.7273H18.25M41.9911 27C44.9911 27 46.4911 29.7273 46.4911 31.7273M46.4911 31.7273C46.4911 34.2273 44.2442 36.2273 42 36.2273M46.4911 31.7273H42M7.80959 61.5C8.64985 58.8503 11.1055 56.8842 14 57C16.7575 57.1103 18.9384 58.9879 19.7041 61.5M7.80959 61.5C7.60857 62.1339 7.5 62.807 7.5 63.5C7.5 67.0899 10.413 70.1435 14 70C17.4518 69.8619 20 66.9545 20 63.5C20 62.8052 19.8969 62.1325 19.7041 61.5M19.7041 61.5H22.3096M22.3096 61.5C23.1499 58.8503 25.6055 56.8842 28.5 57C31.2575 57.1103 33.4384 58.9879 34.2041 61.5M22.3096 61.5C22.1086 62.1339 22 62.807 22 63.5C22 67.0899 24.913 70.1435 28.5 70C31.9518 69.8619 34.5 66.9545 34.5 63.5C34.5 62.8052 34.3969 62.1325 34.2041 61.5M55.3096 61.5C56.1499 58.8503 58.6055 56.8842 61.5 57C64.2575 57.1103 66.4384 58.9879 67.2041 61.5M55.3096 61.5C55.1086 62.1339 55 62.807 55 63.5C55 67.0899 57.913 70.1435 61.5 70C64.9518 69.8619 67.5 66.9545 67.5 63.5C67.5 62.8052 67.3969 62.1325 67.2041 61.5M60.5 40.5V48.5H68.5L66 40.5H60.5Z" stroke="black" stroke-width="2"/>
</svg>
